<svg id="Layer_1" data-name="Layer 1" xmlns="http://www.w3.org/2000/svg" viewBox="0 0 316.74 154.87"><defs><style>.cls-1{fill:#fff;}.cls-2{fill:#0ca49b;}.cls-3{fill:#56d2c2;}</style></defs><title>LogoPartner</title><path class="cls-1" d="M92.79,47.64a.36.36,0,0,0,.53-.17.9.9,0,0,1,1-.71l0,.05-.48-2.45a13.19,13.19,0,0,1,4.85-.15l-.09.07,1.08-3.11c.8.48,1.32,1.4,2.38,1.25,2-.44,3.51-1.67,5.22-3.16-5.33-3.45-10.52-6.82-15.73-10.17a3,3,0,0,0-3.58.1c-1.35,1-2.77,1.85-4.15,2.76.09,2.19-1.46,1.78-2.77,1.74-5.2,2.14-9.81,5.3-14.55,8.25.26,3-1.95,1.93-3.41,2.11-5.76,2.46-10.8,6.19-16.31,9.1-3.77,2-7.38,4.27-11.05,6.45-1.06.63-2.46.95-2.62,2.53,1,.67.72,1.74.72,2.68,0,6.32,0,12.65,0,19,5.15,3.51,10.81,6.15,16.16,9.33.28.17.78,0,1.18-.07l-.08.07c.06-5.58.35-11.17.07-16.73-.17-3.3.92-5,3.8-6.61C63.62,65,72.19,60,80.8,55c1.07-.63,2.31-1.08,3-2.21,1.45-3.46,4.53-4.87,7.74-6.13a1.53,1.53,0,0,1,.16-.37c.05-.06.18,0,.28-.07l-.45.43A1.47,1.47,0,0,0,92.79,47.64Z"/><path class="cls-1" d="M94.83,71.53c-2.65.67-4.64,2.61-7.08,3.71a2.46,2.46,0,0,0-1.34,2.46c0,12.82,0,25.63,0,39a126.92,126.92,0,0,0,15.77-8.9V66.24c4.3,2,7.61,5,11.78,6.31l.15-25.76c-5,1.61-9.12,4.84-13.64,7.33-1.26.7-1.07,1.85-1.06,3,0,3.12-.14,6.26.06,9.37.11,1.7-.88,2.48-1.88,3.4C97.63,72,96.1,71.55,94.83,71.53Z"/><path class="cls-2" d="M114.13,46.79,114,72.55c3.58,1.74,4.81,4.45,4.43,8.49a119.49,119.49,0,0,0-.08,13.65c0,1.2-.55,2.61.79,3.54,3.08-1.77,7-2.88,9-5.49s.53-6.65.56-10.06c.09-8.16-.13-16.33.11-24.49.09-2.9-.87-4.54-3.39-5.68C121.55,50.78,118.46,47.57,114.13,46.79Z"/><path class="cls-1" d="M52,93.31l-1-.19.08-.07c0,6.58,0,13.16,0,19.74,0,1.29-.09,2.53,1.31,3.33,5.77,3.32,11.5,6.69,17.54,10.21V85.38l-3.43-.08,0,0c.62,4,.06,4.95-3.5,5.21a14.29,14.29,0,0,0-6.85,2.75A3.41,3.41,0,0,1,52,93.31Z"/><path class="cls-3" d="M119.12,98.23c-1.34-.93-.78-2.34-.79-3.54A119.49,119.49,0,0,1,118.41,81c.38-4-.85-6.75-4.43-8.49-4.17-1.32-7.48-4.31-11.78-6.31v41.54c2.34-.18,4.24-1.63,5.93-2.85C111.64,102.41,115.6,100.7,119.12,98.23Z"/><path class="cls-1" d="M248.55,70.33c2.15,2.84,3.57,4.78,5.06,6.67,2,2.53,2.76,2.49,4.82,0a43.08,43.08,0,0,0,4.68-6l.81.31c0,3.6.16,7.2-.06,10.78-.15,2.41,1.09,2.45,2.85,2.46s2.62-.17,2.58-2.28c-.12-7.44,0-14.88-.05-22.33,0-.75.4-1.81-.84-2.08-1-.2-1.54.35-2.11,1.09-3.32,4.25-6.68,8.47-10.16,12.85-4.25-4.74-7.18-10.17-11.44-14-1.39.21-1.38.81-1.38,1.37,0,7.58.08,15.17-.05,22.75,0,2.15.69,2.62,2.68,2.65s2.75-.58,2.66-2.67C248.43,78.38,248.55,74.83,248.55,70.33Z"/><path class="cls-1" d="M211.85,84.55c3.18-.26,6,1.15,7.09-2.55.23-.76,1-.93,1.75-.93l8.18,0c.55,0,1.28,0,1.41.63.85,4.13,4,2.52,7.05,2.82-2.72-6.33-5.3-12.33-7.9-18.32-1.06-2.46-2.16-4.89-3.29-7.32-.81-1.76-1.79-1.59-2.8-.16a3.68,3.68,0,0,0-.45.73Zm9.25-7.87c1.54-2.79,1.7-5.91,3.78-8.34,1,2.77,2.34,5.23,2.91,8.06C225.65,77,223.66,76.69,221.1,76.68Z"/><path class="cls-1" d="M142.42,84.53c1.63,0,2.91-.06,4.18,0s2.19-.19,2.35-1.33c.35-2.61,2.23-2.13,3.9-2.14,2,0,4,0,6,0,.91,0,1.91.07,2.17,1,1.07,3.87,4,2.1,6.5,2.37-.53-3.39-2.36-6-3.52-8.76-2.21-5.35-4.59-10.63-6.91-15.94-.4-.92-.78-1.86-2-1.92-1.45-.06-1.38,1.21-1.75,2C149.73,68,146.15,76.09,142.42,84.53Zm16.19-7.9a30.21,30.21,0,0,1-6.52-.09c-.08-1.61.91-2.72,1.36-4s.57-2.8,1.73-3.79c.32.3.62.46.71.69C156.8,71.79,157.68,74.16,158.61,76.63Z"/><path class="cls-1" d="M200.27,57.83c-3.15,0-6.3.07-9.44,0-2.06-.06-1.83,1.29-1.81,2.56s-.34,2.73,1.73,2.64a6.15,6.15,0,0,1,.86,0c1.93.23,4.57-.93,5.63.62.95,1.39.37,3.84.39,5.82,0,3.86,0,7.71,0,11.56,0,3.54,0,3.36,3,3.57,2.8.19,2.88-1.3,2.84-3.4-.09-5,0-10,0-15,0-3.53.05-3.21,3.34-3.2.86,0,1.72,0,2.58,0a3.1,3.1,0,0,0,2.23-4.55c-.44-.7-1.2-.62-1.9-.62Z"/><path class="cls-1" d="M173.48,71.57c0,3.58.07,7.17,0,10.75,0,1.68.52,2.26,2.19,2.23,4.31-.07,8.63-.09,12.94,0,2.09.05,2.23-1,2.22-2.67s-.45-2.36-2.2-2.27c-2.29.11-4.6-.11-6.88.05-2,.13-2.48-.73-2.46-2.51.06-5.59-.14-11.18.09-16.76.11-2.75-1.4-2.5-3.22-2.63-2.06-.14-2.78.48-2.69,2.61.17,3.72.05,7.45.05,11.18Z"/><path class="cls-1" d="M151.92,104.92c-5.18,0-5.81-.55-6-5.15-.05-.84.69-2.18-1-2.35-1.32-.14-1.6,1-2,1.91a5.69,5.69,0,0,0,4.13,7.5,12.85,12.85,0,0,0,2.15.07c5.09.07,5.08.07,5.34-5.05.06-1-.46-2.5,1.34-2.63,1.4-.1,2,.86,2.37,2a11.67,11.67,0,0,1,.52,1.58c.63,4.05.62,4.05,4.62,4.05,10.49,0,21-.08,31.45,0,2.31,0,3.11-.69,2.82-2.88-.09-.71,0-1.44,0-2.15-.27-3.29-1.34-4.37-4.41-4.53-3.22-.18-5.5,1.39-5.93,4.18a5.34,5.34,0,0,0,.66,3.55c-8.19,0-16.22,0-24.25,0-1.55,0-2.48-.27-2.31-2.09a7,7,0,0,0-.45-2.92c-.65-1.86-1.62-2.94-3.72-2.77a16,16,0,0,1-3,0c-2-.22-2.45.79-2.33,2.53C152,101.43,151.92,103,151.92,104.92Zm43.1-2c-.15.81.48,2-1.15,2.19-1.84.23-3.89-1.25-3.93-3-.05-1.56,1.06-2.34,2.23-2.8S194.81,100.66,195,102.91Z"/><path class="cls-1" d="M219.52,104.88c1-2.86,1.07-5.57-1.51-7-2.37-1.34-5-.73-7.4,2.32,0-2.58,0-4.33,0-6.08,0-.85,0-1.72-1.28-1.73s-1.34.79-1.34,1.68c0,3,0,6,0,9,0,1.37-.24,2.13-1.86,2.06-1.4-.07-2.53,0-2.44-2,.13-3,0-6,0-9,0-.84,0-1.74-1.23-1.81s-1.4.76-1.41,1.65c0,3.72,0,7.44,0,11.16,0,1.26.45,1.75,1.75,1.75q10.77-.06,21.53,0c1.48,0,2-.52,2-2-.08-3.57,0-7.15,0-10.73,0-.85,0-1.74-1.24-1.82-1.56-.11-1.47,1-1.48,2,0,2.44,0,4.87,0,7.3C223.48,105.08,223.47,105.08,219.52,104.88Zm-9,0a7.55,7.55,0,0,1,2.51-4.57c1.2-1,2.36-1.44,3.65.15s.8,2.57-.39,3.67C214.6,105.68,212.67,105.1,210.54,104.85Z"/><path class="cls-1" d="M277.46,105.73c-1.14-1.23-2.77-.27-4.07-1s-2.68-1.47-2.3-3.12a2.91,2.91,0,0,1,3.14-2.35c.69,0,1.78.91,1.89-.64.13-1.74-1.22-1.15-2.09-1.17-4.93-.17-6.49,2.12-5.07,7.43-2.24.76-3.1.33-3.47-2.39-.61-4.59-1.61-5.17-5.24-5.06-3.17.1-4.34,1-4.79,4.13a6.36,6.36,0,0,1-.92,2.77,2.21,2.21,0,0,1-2.28.79c-1.27-.07-1.09-1.07-1.1-1.89,0-2.71,0-5.43,0-8.14,0-1,.57-2.59-1.18-2.65-2.16-.08-1.35,1.76-1.38,2.82-.11,3.29,0,6.57-.05,9.86,0,1.18.31,1.82,1.67,1.81,8.78,0,17.56,0,26.33-.08C276.91,106.81,277.34,106.65,277.46,105.73ZM262.28,103c-.26.56.64,2.13-1.31,2.08-1.77,0-2.91-.75-3-2.75,0-1.65.69-3,2.22-3C262.41,99.24,262.38,101.06,262.28,103Z"/><path class="cls-1" d="M277.08,71.57c0,3.58.13,7.17,0,10.74-.12,2.61,1.55,2.18,3.09,2.21s3,.15,2.94-2.35q-.26-11,0-21.92c.06-2.39-1.08-2.5-2.86-2.45s-3.41-.22-3.2,2.59C277.29,64.1,277.09,67.84,277.08,71.57Z"/><path class="cls-1" d="M173.34,31.9c-1.7,2.2-3.41,4.4-5.09,6.61-1.13,1.5-2.2,1.49-3.35,0-1.71-2.19-3.15-4.61-5.94-7.1-.06,3.71-.11,6.73-.14,9.75,0,1.86,0,3.72,0,5.58,0,.93.17,1.68,1.38,1.66s2-.18,1.94-1.6c0-2,0-3.9,0-6.08,1.81.78,2.2,2.27,3.12,3.29S167,45.4,167.93,44a7.6,7.6,0,0,1,3-3.24c0,2.2,0,4.08,0,6,0,1.28.48,1.73,1.76,1.74s1.76-.44,1.75-1.72c0-4.82,0-9.64,0-14.46Z"/><path class="cls-1" d="M225.62,48.11c-.18-1.06-1-1.54-1.5-2.18-1.7-2-2.53-3.8-.61-6.44s.72-5.28-2.25-6.84a5.81,5.81,0,0,0-2.41-.64c-6.55-.47-6.55-.48-6.56,6,0,2.72,0,5.44,0,8.15,0,1.14-.14,2.29,1.64,2.32,1.59,0,1.82-.73,1.92-2.09s-1-3.18.86-3.74c2-.62,2.53,1.67,3.28,2.8C221.33,47.49,222.55,49.2,225.62,48.11Zm-8.2-12.8c1.6,0,3.27,0,3.39,1.87s-1.32,2.52-3.13,2.59c-1.52.06-2-.5-1.91-2C215.88,36.62,215.41,35.06,217.42,35.31Z"/><path class="cls-1" d="M147.88,45c-.22-3.26-.22-3.29,2.64-3.5,1.15-.09,2.34.17,2.34-1.62s-1.07-1.74-2.29-1.72c-.57,0-1.15,0-1.72-.06-.9,0-1.21-.55-1.21-1.37s.29-1.41,1.18-1.43c1.43,0,2.87,0,4.3,0,1.09,0,2-.11,2.07-1.52.12-1.75-1-1.76-2.21-1.77h-.43c-2.68.21-6.06-1.11-7.86.58-1.63,1.53-.45,4.86-.52,7.4-.06,2.14,0,4.29,0,6.43-.05,1.48.49,2,2,2,2.14-.09,4.31.09,6.45-.07,1-.07,2.79.94,2.84-1.38s-1.7-1.36-2.75-1.69C151,45.7,149.41,46.25,147.88,45Z"/><path class="cls-1" d="M177.16,48c3.16,1.77,5-1.69,7.93-1.68,2.77,0,4.41,3.4,7.56,1.57-2.13-4.88-4.19-9.82-6.46-14.66-.58-1.23-1.57-2.22-2.54.13C181.63,38.29,179.34,43.13,177.16,48Zm8.12-9.29c1.73,4.88,1.73,4.88-2.14,4.21C183.72,41.54,183.78,40,185.28,38.7Z"/><path class="cls-1" d="M193.79,48c3.53,1.23,5.3-1.52,8-1.64,2.9-.13,4.55,3.38,7.65,1.65-2.31-5.31-4.63-10.66-7.32-16.86C198.27,36.68,196.86,42.56,193.79,48Zm9.85-4.9c-3.9.3-3.9.3-2.16-4.35A7.53,7.53,0,0,1,203.64,43.08Z"/><path class="cls-1" d="M279.61,99.64c0,1.85,0,3.7,0,5.55,0,.94.2,1.69,1.36,1.71s2-.11,2-1.54c0-3.85,0-7.69,0-11.53,0-1.06-.55-1.45-1.59-1.5-1.32-.06-1.77.53-1.74,1.76C279.64,95.94,279.62,97.79,279.61,99.64Z"/><path class="cls-1" d="M245.11,103.69c0-1.28,0-2.57,0-3.85,0-1,.49-2.51-1.42-2.44-1.61.06-1.15,1.35-1.17,2.24q-.08,3.21,0,6.43c.07,2.29.05,4.43-3.19,4.25a.93.93,0,0,0-1.09,1,1.36,1.36,0,0,0,1.44,1.3c3-.05,5.85-1.88,5.46-4.64a30.67,30.67,0,0,1,0-4.29Z"/><path class="cls-1" d="M52,93.31a3.41,3.41,0,0,0,4.18-.09A14.29,14.29,0,0,1,63,90.47c3.56-.26,4.12-1.16,3.5-5.21C61.41,87.51,56.75,90.52,52,93.31Z"/><path class="cls-1" d="M233,99.78c0-2,0-4,0-6,0-.72-.11-1.4-1.1-1.45s-1.73.32-1.74,1.37c0,4,0,8,0,12,0,.95.68,1.09,1.42,1.18,1.17.14,1.47-.52,1.46-1.52,0-1.85,0-3.71,0-5.56Z"/><path class="cls-1" d="M33.74,83.79c0-6.33,0-12.66,0-19,0-.94.32-2-.72-2.68L32.92,82C32.91,82.75,33,83.42,33.74,83.79Z"/><path class="cls-1" d="M92.79,47.64a1.47,1.47,0,0,1-1.22-1h0c-3.21,1.26-6.29,2.67-7.74,6.13A36.41,36.41,0,0,0,92.79,47.64Z"/><path class="cls-1" d="M278.71,112.48a4.44,4.44,0,0,0,2.71.38c.8,0,2,.45,2.3-.5.48-1.32-.79-1.09-1.55-1.28-.41-.1-.73-.53-.16-.74.82-.3,1.33-.83.73-1.46a1.85,1.85,0,0,0-2.39,0A4.42,4.42,0,0,0,278.71,112.48Z"/><path class="cls-1" d="M98.65,44.21a13.19,13.19,0,0,0-4.85.15l.48,2.45A7.69,7.69,0,0,0,98.65,44.21Z"/><path class="cls-1" d="M148.14,111.89a1.31,1.31,0,0,0,1.23-1.42,1.41,1.41,0,0,0-1.09-1.59c-.73-.14-1.29.54-1.47,1.16C146.5,111.09,147.53,111.4,148.14,111.89Z"/><path class="cls-1" d="M152.71,109.9c-.33-.55-.68-1.19-1.54-.79-.66.3-1.25.79-.8,1.6.29.53.62,1.35,1.5,1A1.46,1.46,0,0,0,152.71,109.9Z"/><path class="cls-1" d="M102,42.42c-1.06.15-1.58-.77-2.38-1.25l-1.08,3.11A5.63,5.63,0,0,0,102,42.42Z"/><path class="cls-1" d="M66.46,85.3l3.43.08c.18-1.22.31-2.49-1.51-1.39C67.73,84.38,66.73,84.34,66.46,85.3Z"/><path class="cls-3" d="M147.88,45c1.53,1.22,3.16.67,4.78.25C151.09,44.63,149.48,45,147.88,45Z"/><path class="cls-1" d="M63.05,44.05c1.46-.18,3.67.84,3.41-2.11C65.29,42.59,63.93,42.93,63.05,44.05Z"/><path class="cls-1" d="M94.83,71.53c1.27,0,2.8.47,2.78-1.66C96.72,70.48,95.52,70.58,94.83,71.53Z"/><path class="cls-1" d="M81,33.69c1.31,0,2.86.45,2.77-1.74C82.79,32.42,81.67,32.69,81,33.69Z"/><path class="cls-1" d="M94.31,46.76a.9.9,0,0,0-1,.71A.81.81,0,0,0,94.31,46.76Z"/><path class="cls-1" d="M91.57,46.65l.45-.43c-.1,0-.23,0-.28.07a1.53,1.53,0,0,0-.16.37Z"/></svg>