<svg id="Layer_1" data-name="Layer 1" xmlns="http://www.w3.org/2000/svg" viewBox="0 0 316.74 154.87"><defs><style>.cls-1{fill:#d8d8d8;}.cls-2{fill:#875c7b;}</style></defs><title>LogoPartner-07</title><path class="cls-1" d="M156.86,65.14v22.2a33.65,33.65,0,0,1-23.92,32.31A31.07,31.07,0,0,1,120,121c-9.8-1.26-17.88-5.64-23.84-13.69a32.36,32.36,0,0,1-6.26-24.48C91.41,72.13,97,64,106.29,58.38c6.64-4.05,13.9-5.18,21.45-4.37a30.87,30.87,0,0,1,13.84,5.18c.37.25.75.88,1.29.57s.25-.92.25-1.4c0-5.89,0-11.77,0-17.66a6.92,6.92,0,0,1,7.67-7,6.83,6.83,0,0,1,6,6.39c0,.16,0,.33,0,.5V65.14Zm-33.65,42.22a20,20,0,1,0-20-19.87A19.81,19.81,0,0,0,123.21,107.36Z"/><path class="cls-2" d="M52.81,121.08c-18.2.31-33.62-15.27-33.58-33.57C19.27,68.83,34.8,54,52.45,53.84a33.62,33.62,0,1,1,.36,67.24Zm20-33.56a20,20,0,1,0-19.57,19.93A19.78,19.78,0,0,0,72.81,87.52Z"/><path class="cls-1" d="M193.7,53.89c18.16-.29,33.6,15.36,33.55,33.66-.05,18-15.12,33.63-33.65,33.6a33.9,33.9,0,0,1-33.68-33.68C159.91,69.3,175.1,53.54,193.7,53.89Zm19.76,33.69c.44-11.19-9.31-19.92-19.52-20.07a20,20,0,1,0-.53,39.94C203.84,107.69,213.77,99,213.46,87.58Z"/><path class="cls-1" d="M297.5,87.56c.47,18.07-15.31,33.85-33.84,33.59a33.66,33.66,0,1,1,.93-67.32C282.06,54.05,298,69.1,297.5,87.56ZM263.81,107.4A19.87,19.87,0,0,0,284,87.53a20,20,0,0,0-40-.11A19.78,19.78,0,0,0,263.81,107.4Z"/></svg>