<svg id="Layer_1" data-name="Layer 1" xmlns="http://www.w3.org/2000/svg" viewBox="0 0 316.74 154.87"><defs><style>.cls-1{fill:#fff;}.cls-2{fill:#53c1c1;}.cls-3{fill:none;}</style></defs><title>LogoPartner</title><circle class="cls-1" cx="98.18" cy="28.58" r="9.69"/><circle class="cls-1" cx="98.18" cy="126.29" r="9.69"/><circle class="cls-1" cx="49.32" cy="77.43" r="9.69"/><circle class="cls-1" cx="147.03" cy="77.43" r="9.69"/><path class="cls-2" d="M73.23,31l-.87.19.53-.53Z"/><path class="cls-2" d="M75.75,33.48a32.69,32.69,0,0,1-7.16,1.44l1.51-1.5a32.47,32.47,0,0,0,4.58-1Z"/><path class="cls-2" d="M78.15,35.88a31.56,31.56,0,0,1-12.81,2.3l1.29-1.29a31.07,31.07,0,0,0,10.48-2Z"/><path class="cls-2" d="M80.46,38.19l-.44.18C76,40,70,42.1,63.63,41.2c-.38-.05-.75-.11-1.13-.18l1.16-1.16.16,0c4.62.65,9.44-.19,15.62-2.72Z"/><path class="cls-2" d="M82.7,40.43c-.8.36-1.6.71-2.41,1-4.39,1.83-10.23,3.82-16.46,2.94A25.26,25.26,0,0,1,60,43.54l1.07-1.07a23.06,23.06,0,0,0,3,.63c5.91.84,11.52-1.08,15.76-2.85.63-.26,1.27-.54,1.91-.83Z"/><path class="cls-2" d="M84.89,42.63c-1.44.69-2.89,1.35-4.33,2-4.44,1.88-10.33,3.92-16.52,3a25.52,25.52,0,0,1-6.35-1.8l1-1a23.56,23.56,0,0,0,5.51,1.5c5.87.84,11.54-1.14,15.82-3,1.29-.54,2.57-1.13,3.85-1.73Z"/><path class="cls-2" d="M87.06,44.79c-2.07,1-4.15,2-6.24,2.91-4.48,1.93-10.43,4-16.58,3.15A27.81,27.81,0,0,1,55.57,48l1-1a25.82,25.82,0,0,0,7.86,2.57c5.82.83,11.54-1.2,15.87-3.05,1.92-.83,3.85-1.74,5.77-2.68Z"/><path class="cls-2" d="M89.22,47c-2.68,1.34-5.41,2.67-8.13,3.86-4.82,2.09-10.56,4.12-16.65,3.25A29.77,29.77,0,0,1,53.6,49.93l1-1a28.25,28.25,0,0,0,10.06,3.79c5.76.82,11.28-1.13,15.93-3.15,2.56-1.12,5.13-2.37,7.66-3.63Z"/><path class="cls-2" d="M91.47,49.05l-.06,0c-3.28,1.65-6.68,3.35-10,4.84-4.87,2.14-10.66,4.22-16.71,3.35-4.72-.67-8.93-2.89-12.94-5.46l1-1c3.81,2.42,7.78,4.48,12.15,5.11,5.72.81,11.3-1.19,16-3.26,3.19-1.41,6.42-3,9.56-4.59A10.63,10.63,0,0,0,91.47,49.05Z"/><path class="cls-2" d="M94.64,50.72c-1.26.61-2.51,1.24-3.75,1.86-3,1.5-6.16,3.06-9.26,4.45-4.15,1.85-9,3.66-14,3.66a20.5,20.5,0,0,1-2.8-.2A25.53,25.53,0,0,1,57.25,58l-3.46-3.46A29.61,29.61,0,0,0,65,59.17c5.68.82,11.3-1.24,16-3.36,3.08-1.37,6.2-2.93,9.22-4.43L93,50A11.42,11.42,0,0,0,94.64,50.72Z"/><path class="cls-2" d="M102,50.62c-1,.42-2,.84-2.87,1.25-2.91,1.31-5.88,2.78-8.76,4.2s-5.63,2.79-8.45,4.07c-4.4,2-9.1,3.76-14,3.76a19.16,19.16,0,0,1-2.81-.2,20.7,20.7,0,0,1-2.71-.57L60.22,61a21.72,21.72,0,0,0,5,1.38c5.64.81,11.07-1.18,16.11-3.46,2.8-1.27,5.65-2.68,8.41-4,2.46-1.22,5-2.47,7.5-3.63A11.19,11.19,0,0,0,102,50.62Z"/><path class="cls-2" d="M101.35,52.73l-2.09,2.09-.43.44h0c-3,1.34-6.06,2.85-9,4.31-2.51,1.23-5.1,2.51-7.65,3.68-4.45,2-9.2,3.86-14.16,3.86-.58,0-1.17,0-1.75-.08l-1.56-1.56.75.13c5.61.8,11.09-1.24,16.17-3.56,2.53-1.17,5.11-2.44,7.61-3.67,3.19-1.57,6.48-3.19,9.72-4.61C99.72,53.42,100.52,53.07,101.35,52.73Z"/><path class="cls-2" d="M96.33,58.19c-.53.7-1,1.43-1.5,2.17-1.87.88-3.73,1.8-5.57,2.7-2.24,1.1-4.55,2.24-6.83,3.3-4.12,1.91-8.49,3.63-13,3.92-.21-.25-.43-.49-.66-.73L68.2,69c4.7,0,9.32-1.83,13.67-3.84,2.26-1.05,4.57-2.19,6.8-3.29C91.19,60.63,93.76,59.37,96.33,58.19Z"/><path class="cls-2" d="M93.44,62.78c-.32.62-.62,1.26-.9,1.91l-3.83,1.86c-2,1-4,2-6,2.92a40.79,40.79,0,0,1-11.45,3.86,10.48,10.48,0,0,0-.6-1.27,38.21,38.21,0,0,0,11.48-3.8c2-.94,4-1.94,6-2.9C89.88,64.5,91.66,63.62,93.44,62.78Z"/><path class="cls-2" d="M91.69,66.84c-.2.58-.39,1.16-.55,1.75l-3,1.45c-1.71.84-3.47,1.71-5.2,2.54a42.53,42.53,0,0,1-11,3.86,12,12,0,0,0-.2-1.32,41,41,0,0,0,10.6-3.75c1.73-.82,3.49-1.68,5.19-2.52Z"/><path class="cls-2" d="M90.64,70.58c-.12.54-.23,1.08-.32,1.63h0l-2.68,1.32c-1.48.73-2.94,1.45-4.41,2.16a41.78,41.78,0,0,1-11.43,4,10.93,10.93,0,0,0,.2-1.38,41.45,41.45,0,0,0,10.65-3.83c1.47-.71,2.93-1.43,4.4-2.16Z"/><path class="cls-2" d="M90.07,74.07c0,.52-.1,1-.12,1.55L87.12,77,83.5,78.8c-4.11,2-8.45,3.92-13,4.3a11.07,11.07,0,0,0,.71-1.42c4-.52,8-2.26,11.72-4.08l3.61-1.78Z"/><path class="cls-2" d="M89.93,78.85l-3.32,1.64-2.84,1.42c-4.66,2.28-9.6,4.47-14.76,4.47-.42,0-.83,0-1.26,0l1-1,.27-.28c4.88,0,9.64-2.13,14.14-4.34L86,79.3l3.87-1.92C89.89,77.87,89.9,78.36,89.93,78.85Z"/><path class="cls-2" d="M90.21,81.94q-2.05,1-4.08,2L84,85c-4.7,2.35-9.69,4.58-14.87,4.58a16.23,16.23,0,0,1-2.49-.18c-.56-.08-1.12-.19-1.67-.32L66.12,88l.75.13c5.69.83,11.3-1.66,16.57-4.28.7-.34,1.39-.7,2.09-1l4.52-2.24C90.09,81,90.15,81.47,90.21,81.94Z"/><path class="cls-2" d="M90.77,84.88h0c-1.72.84-3.42,1.7-5.1,2.56l-1.37.68c-4.93,2.48-9.8,4.69-14.91,4.69a17.76,17.76,0,0,1-2.51-.18,19.94,19.94,0,0,1-4.27-1.15l1-1a17.51,17.51,0,0,0,3.42.87c5.67.83,11.1-1.59,16.63-4.38l1.36-.68c1.79-.91,3.6-1.82,5.42-2.71C90.57,84,90.66,84.44,90.77,84.88Z"/><path class="cls-2" d="M91.58,87.71c-2.14,1-4.25,2.12-6.35,3.18l-.66.34c-5,2.54-9.9,4.79-15,4.79a17.18,17.18,0,0,1-2.46-.18,20.85,20.85,0,0,1-6.6-2.23l1-1a19.36,19.36,0,0,0,5.8,1.9c5.65.84,11.12-1.64,16.69-4.47l.67-.34c2.16-1.1,4.34-2.22,6.55-3.29C91.3,86.85,91.44,87.28,91.58,87.71Z"/><path class="cls-2" d="M92.64,90.42C90,91.68,87.4,93,84.83,94.34c-5,2.59-10,4.89-15.13,4.89a16.6,16.6,0,0,1-2.42-.17,23.5,23.5,0,0,1-8.77-3.48l1-1a21.9,21.9,0,0,0,8,3.14c5.62.83,11.13-1.7,16.75-4.58,2.59-1.34,5.22-2.69,7.9-4C92.28,89.6,92.46,90,92.64,90.42Z"/><path class="cls-2" d="M93.94,93c-3.09,1.44-6.06,3-8.84,4.43-5.25,2.73-10.09,5-15.17,5a16.8,16.8,0,0,1-2.44-.18c-4-.59-7.5-2.6-10.82-4.85l1-1c3.13,2.1,6.4,4,10.05,4.49,5.61.83,10.93-1.63,16.81-4.68,2.77-1.45,5.73-3,8.82-4.43C93.51,92.23,93.72,92.62,93.94,93Z"/><path class="cls-2" d="M95.49,95.52c-3.37,1.53-6.73,3.26-10.12,5-4.38,2.3-9.71,5.09-15.32,5.09a15.71,15.71,0,0,1-2.36-.17c-4.82-.71-8.88-3.51-12.8-6.28l1-1c3.74,2.64,7.61,5.27,12,5.92,6.05.9,12.05-2.25,16.87-4.78,3.35-1.76,6.67-3.47,10-5C95,94.77,95.24,95.15,95.49,95.52Z"/><path class="cls-2" d="M97.32,97.93c-4,1.72-7.93,3.75-11.68,5.74-4.43,2.35-9.8,5.2-15.42,5.2a16.6,16.6,0,0,1-2.33-.17c-4.89-.73-9-3.65-13-6.47L53.13,101l.95-1,1.62,1.14c3.84,2.74,7.81,5.56,12.39,6.24,6,.89,12.07-2.31,16.92-4.89,3.68-1.95,7.51-3.93,11.45-5.64C96.74,97.22,97,97.57,97.32,97.93Z"/><path class="cls-2" d="M99.47,100.25a130.82,130.82,0,0,0-13.57,6.53c-4.67,2.51-9.9,5.3-15.46,5.3a15.45,15.45,0,0,1-2.34-.17c-4.83-.72-8.88-3.61-12.78-6.4-1-.71-2-1.45-3-2.13l-.69-.45-.22-.22.92-.91c.24.15.49.31.73.48,1,.69,2.07,1.43,3.07,2.15,3.78,2.7,7.69,5.49,12.2,6.16,6,.9,11.84-2.23,17-5a136.44,136.44,0,0,1,13.19-6.39c.26.28.53.55.8.83Z"/><path class="cls-2" d="M85.53,108.72c2.28-1.23,4.71-2.52,7.26-3.76a11.27,11.27,0,0,0-2.5,1.89l-1.8,1.79-2.32,1.25c-4.72,2.55-10,5.4-15.56,5.4a15,15,0,0,1-2.31-.17A20.31,20.31,0,0,1,61,112.36h0l-5-5,.43.3c3.72,2.68,7.57,5.45,12,6.11C74.48,114.7,80.35,111.52,85.53,108.72Z"/><path class="cls-2" d="M101.8,102.59c-.91.32-1.82.67-2.72,1h0a11.2,11.2,0,0,0-5.11.78c2.2-1,4.47-2,6.79-2.85Z"/><path class="cls-2" d="M84.72,112.42l-3.11,3.11a25.23,25.23,0,0,1-10.83,3,15.9,15.9,0,0,1-2.28-.17,15.4,15.4,0,0,1-1.93-.42l-2.24-2.24A15.82,15.82,0,0,0,68.7,117C74.26,117.85,79.77,115.1,84.72,112.42Z"/><path class="cls-2" d="M104.22,105l-.38.11h0a10.65,10.65,0,0,0-1.74-.83l1.07-.35Z"/><path class="cls-2" d="M78.34,118.8l-2.12,2.12a18.85,18.85,0,0,1-5.27.8h-.6l-1.47-1.48h0A18.07,18.07,0,0,0,78.34,118.8Z"/><path class="cls-2" d="M106.06,106.85c-.14-.15-.29-.28-.44-.42h0Z"/><path class="cls-2" d="M73.76,123.38l-.87.87-.68-.69A13.63,13.63,0,0,0,73.76,123.38Z"/><path class="cls-3" d="M106.06,106.85c-.14-.15-.29-.28-.44-.42a11.63,11.63,0,0,0-1.78-1.31h0a10.65,10.65,0,0,0-1.74-.83,11.21,11.21,0,0,0-3-.67h0a11.2,11.2,0,0,0-5.11.78h0a11.7,11.7,0,0,0-1.13.54h0a11.27,11.27,0,0,0-2.5,1.89l-1.8,1.79-3.77,3.78-3.11,3.11-3.27,3.27-2.12,2.12-2.46,2.46-.87.87-.68-.69-1.86-1.85-1.47-1.48-2.31-2.31-2.24-2.24L61,112.36h0l-5-5h0l-4.46-4.47-.22-.22.92-.91,1.79-1.8.81-.8,1-1,.83-.82,1-1,.88-.88,1-1,1-1,1-1,1.14-1.14,1-1L65,89.09l3.77-3.76.27-.28a11.21,11.21,0,0,0,1.45-2,11.07,11.07,0,0,0,.71-1.42,10.52,10.52,0,0,0,.6-2,10.93,10.93,0,0,0,.2-1.38,11.81,11.81,0,0,0,0-1.88,12,12,0,0,0-.2-1.32,11.18,11.18,0,0,0-.54-1.79,10.48,10.48,0,0,0-.6-1.27,11,11,0,0,0-1.22-1.78c-.21-.25-.43-.49-.66-.73l-4.08-4.08-2.35-2.34L60.22,61l-3-3-3.46-3.46-2.42-2.42.34-.35L55.57,48l1-1,1.12-1.13,1-1L60,43.54l1.07-1.07L62.5,41l1.16-1.16,1.68-1.68,1.29-1.29,2-2,1.51-1.5,2.26-2.27.53-.53.34.34,3.88,3.88,1,1,1.29,1.29,1,1,1.23,1.23,1,1,1.19,1.2,2.18,2.17,1,1L90.29,48l.09.09a10.63,10.63,0,0,0,1.09.94,11.17,11.17,0,0,0,3.17,1.67,11.25,11.25,0,0,0,7.34-.1c.3-.11.59-.23.88-.36h0c.52-.21,1-.42,1.58-.62l-3.1,3.09-2.09,2.09-.43.44h0a34.29,34.29,0,0,0-2.5,2.93c-.53.7-1,1.43-1.5,2.17s-1,1.59-1.39,2.42c-.32.62-.62,1.26-.9,1.91s-.59,1.42-.85,2.15h0c-.2.58-.39,1.16-.55,1.75s-.36,1.32-.5,2-.23,1.08-.32,1.63h0c-.1.62-.18,1.24-.25,1.86s-.1,1-.12,1.55-.06,1.17-.06,1.76,0,1,0,1.47.06,1.12.12,1.68.1.94.16,1.41.17,1.07.27,1.6h0c.09.45.18.9.29,1.34h0c.12.52.26,1,.41,1.54s.26.86.4,1.29.35,1,.55,1.47.33.83.51,1.24.43,1,.67,1.42.41.78.63,1.18.53.92.82,1.37.48.76.73,1.13.63.89,1,1.33.57.72.86,1.08.75.87,1.14,1.29.53.55.8.83l.21.2,1.29,1.3,4.88,4.88Z"/><path class="cls-1" d="M137.34,95.07l7.64,7.64-7.64,7.65h0l-13.88,13.89-10.54-10.54L99.26,100.05a32,32,0,0,1,0-45.23l6.8-6.8,9.76-9.76,7.64-7.64,13.88,13.89h0L145,52.16l-7.64,7.64-9.75,9.76a11.15,11.15,0,0,0,0,15.76Z"/><path class="cls-1" d="M182.87,51.61c-1,0-1.75-.59-2-2l-.24-1.66,1.77-.29.24,1.65c.09.48.33.71.65.71.5,0,.77-.38.71-.94l-.27-1.66,1.78-.29.26,1.68c.09.47.36.8.74.8.62,0,.8-.47.71-1.12L187,46.67l1.77-.23.27,1.65a2.46,2.46,0,0,1-2.61,3,2.05,2.05,0,0,1-1.5-.68A2.54,2.54,0,0,1,182.87,51.61Z"/><path class="cls-1" d="M177.22,75.07l.33-3.1a7.91,7.91,0,0,0,2.39.36c2,0,3.16-1,3.16-4.14V54H187V64.79h2.92v3.07H187V68c0,3.78-1.28,7.39-7.3,7.39A10.49,10.49,0,0,1,177.22,75.07Z"/><path class="cls-1" d="M189.49,64.79H193v3.07h-3.52Z"/><path class="cls-1" d="M192.68,64.79h3.52v3.07h-3.52Z"/><path class="cls-1" d="M195.87,64.79h3.52v3.07h-3.52Z"/><path class="cls-1" d="M199.06,64.79h3.52v3.07h-3.52Z"/><path class="cls-1" d="M202.25,64.79h3.52v3.07h-3.52Z"/><path class="cls-1" d="M205.45,64.79H209v3.07h-3.51Z"/><path class="cls-1" d="M208.64,64.79h3.52v3.07h-3.52Z"/><path class="cls-1" d="M211.83,64.79h3.52v3.07h-3.52Z"/><path class="cls-1" d="M215,64.79h3.52v3.07H215Z"/><path class="cls-1" d="M218.21,64.79h3.52v3.07h-3.52Z"/><path class="cls-1" d="M221.4,64.79h3.52v3.07H221.4Z"/><path class="cls-1" d="M224.6,64.79h3.51v3.07H224.6Z"/><path class="cls-1" d="M227.79,64.79h3.51v3.07h-3.51Z"/><path class="cls-1" d="M231,64.79h3.52v3.07H231Z"/><path class="cls-1" d="M234.17,64.79h3.52v3.07h-3.52Z"/><path class="cls-1" d="M237.36,64.79h3.52v3.07h-3.52Z"/><path class="cls-1" d="M246.11,43.6l6.62-1v2.1l-6.62,1Z"/><path class="cls-1" d="M240.55,64.79h1.25a12.37,12.37,0,0,1,1.8.15,5.62,5.62,0,0,1-1.36-4,7.13,7.13,0,0,1,7.51-7.36c4.19,0,6.88,2.19,6.88,6.88a6,6,0,0,1-1.71,4.47,22.37,22.37,0,0,1,2.24-.15h1.57v3.07H240.55Zm4.56-15.07a2,2,0,1,1,1.95,2A2,2,0,0,1,245.11,49.72Zm7.59,11c0-2.6-1-4-3.22-4-1.69,0-3.34,1.18-3.34,4s1.09,4.17,3.28,4.17C251.28,64.79,252.7,63.43,252.7,60.68Zm-2.69-11a2,2,0,0,1,2-2,2,2,0,0,1,1.95,2,2,2,0,1,1-3.9,0Z"/><path class="cls-1" d="M263.84,48l6.62-.94v2.09l-6.62,1Z"/><path class="cls-1" d="M268.72,67.86c-3.49,0-5.2-.82-6.09-2.27a4,4,0,0,1-3.9,2.27h-.44V64.79h.59c1.42,0,2.21-.86,2.21-3.55,0-4.22,2.58-7.65,7.54-7.65,4.76,0,6.83,2.72,6.83,7v7.24Zm2.93-6.79c0-3.11-1.13-4.41-3.28-4.41s-3.43,1.72-3.43,4.23,1.12,3.9,4.16,3.9h2.55Z"/><path class="cls-1" d="M198.47,102.19,197,92.56c-.27-1.8-.47-3.61-.62-5h-.06c-.27,1.28-.62,2.93-1.12,4.56L192,102.19h-3.72l-3.07-9.36a46.46,46.46,0,0,1-1.3-5.27h-.06c-.15,1.78-.33,3.58-.53,5.32l-1.16,9.31h-3.87l3.05-20h4.52l3.37,10.32c.32,1.06.79,2.81,1.09,4.2h.06c.35-1.51.74-3,1.09-4.14l3.4-10.38h4.49l3.11,20Z"/><path class="cls-1" d="M217.44,102.19l-1.36-4.07h-7.56l-1.39,4.07h-3.87l6.88-20h4.52l7,20Zm-4.37-13.06c-.33-1-.59-1.86-.8-2.75h0c-.24.89-.47,1.78-.77,2.75l-2,5.94h5.68Z"/><path class="cls-1" d="M232.16,102.52h-.86c-6.08,0-9.07-3.87-9.07-10,0-6.62,4.4-10.61,9.75-10.61,6.09,0,9.08,3.87,9.08,10,0,4-1.57,7.06-4.11,8.36,1.65,0,2.63.92,5.05.59v3.28C236.86,104.88,236.12,102.52,232.16,102.52Zm-.5-17.14c-3,0-5.32,2.39-5.32,6.68s1.71,7,5.29,7c3,0,5.32-2.39,5.32-6.68S235.23,85.38,231.66,85.38Z"/><path class="cls-1" d="M256.45,102.19l-1.35-4.07h-7.57l-1.39,4.07h-3.87l6.89-20h4.52l7,20Zm-4.37-13.06c-.32-1-.59-1.86-.8-2.75h0c-.23.89-.47,1.78-.77,2.75l-2,5.94h5.67Z"/><path class="cls-1" d="M272.36,102.19,267,94h-.33v8.24h-3.84v-20c1.57-.08,3.43-.11,5.73-.11,4.41,0,7.24,1.53,7.24,5.61a5.61,5.61,0,0,1-4.9,5.56c.56.74,1.12,1.48,1.59,2.18l4.64,6.71Zm-4.2-16.93a10.83,10.83,0,0,0-1.51.09v5.76c.27,0,.8.06,1.39.06,2.31,0,3.72-1.18,3.72-3S270.58,85.26,268.16,85.26Z"/></svg>