<svg id="Layer_1" data-name="Layer 1" xmlns="http://www.w3.org/2000/svg" viewBox="0 0 316.74 154.87"><defs><style>.cls-1{fill:#ba9f70;}.cls-2{fill:#fff;}</style></defs><title>LogoPartner</title><path class="cls-1" d="M77.45,55.62c3.1-2.31,6.47-3.72,9.62-5.48,6.87-3.83,13.83-7.5,20.71-11.31a6.39,6.39,0,0,1,6.87-.06c8,4.52,16.08,8.87,24.14,13.28,1.41.77,2.57,2,4.12,2.5.56.2,1.4.38,1.39,1s-.86.82-1.4,1.12c-4.38,2.46-8.78,4.89-13.16,7.37a2.58,2.58,0,0,0-1.24,3.22,2.72,2.72,0,0,0,2.85,2,6.24,6.24,0,0,0,3.07-.66c6.28-3.37,12.55-6.73,18.81-10.13C156,57,156.13,55,153.59,53a33,33,0,0,0-5.16-3c-10.89-5.88-21.84-11.62-32.68-17.58-3.86-2.13-7.12-1.08-10.56.85-6.64,3.72-13.35,7.32-20,11C80.11,47,75.06,49.7,70,52.48c-3.42,1.89-3.55,3.94-.2,5.87,5.85,3.35,11.8,6.53,17.72,9.75l45.61,24.8q4.7,2.55,9.34,5.19c2,1.12,2,1.62,0,2.71-8.92,4.9-18,9.62-26.76,14.74-3.37,2-6,1.79-9.28-.11-8.93-5.14-18.09-9.88-27.15-14.81-.51-.28-1.34-.36-1.4-1.1-.08-.91.86-1,1.41-1.26,4-2.21,8-4.38,12-6.55a6.67,6.67,0,0,0,2.12-1.51A2,2,0,0,0,93,87c-1.56-.92-3.16-1.37-5-.39-6.29,3.45-12.64,6.81-18.93,10.27-2.38,1.3-2.21,3.73.34,5.28,2,1.23,4.14,2.32,6.23,3.46,10,5.45,20.14,10.8,30.1,16.41a10.1,10.1,0,0,0,10.89.06c9.55-5.31,19.27-10.33,28.91-15.47,2.65-1.41,5.27-2.88,7.94-4.24a3.24,3.24,0,0,0,1.89-3,3.21,3.21,0,0,0-2-2.94C143.6,91.26,133.76,86.07,124,80.8Q101.11,68.53,78.31,56.15C78.09,56,77.89,55.9,77.45,55.62Z"/><path class="cls-1" d="M213.65,59.07c-2.56,0-5.13,0-7.69,0-1.21,0-1.66-.35-1.63-1.6.07-2.81,0-5.63,0-8.44,0-.61.16-1.32-.71-1.51C200,46.73,196.4,46,192.89,48c-2.8,1.56-4.1,5.39-3.15,9.25.74,3,3.11,4.81,6.48,4.9a13,13,0,0,1,2.25,0c.93.19,2.23-.76,2.77.64a4.56,4.56,0,0,1-1.75,4.61,5,5,0,0,1-3.25.62,18.38,18.38,0,0,1-2.22-.38c-.8-.24-1.29-.22-1.45.76-.14.81-.53,1.63.6,2,2.83,1,5.68,1.14,8.36-.32,2.32-1.27,2.64-3.73,2.74-6,.07-1.55.46-2,2-2,5.25.09,10.51,0,15.76,0A5.94,5.94,0,0,0,226.11,61c.58-.48,1-.33,1.66,0,2.9,1.59,5.82,1.72,8.6-.33a1.15,1.15,0,0,1,1.63,0,7,7,0,0,0,4.35,1.45c4.73-.08,6.83-2.06,7-6.85,0-1.93,0-3.87,0-5.81,0-.94,0-1.73-1.31-1.7s-2,.4-2,1.81c0,1.81,0,3.62,0,5.44,0,1.43,0,3-1.64,3.66a5.68,5.68,0,0,1-5.53-.6,1.75,1.75,0,0,1-.64-1.66c0-1.5,0-3,0-4.5,0-.93-.13-1.59-1.31-1.52s-1.84.34-1.82,1.61,0,2.63,0,3.94a2.75,2.75,0,0,1-2.72,3.1,9.33,9.33,0,0,1-2.24-.05c-1.77-.22-2.89-.95-2.62-3a28.31,28.31,0,0,0,0-4.12c0-.68.33-1.6-1-1.56-1.06,0-2.09.12-2.21,1.45-.1,1.18-.05,2.38-.06,3.57,0,3.1-.72,3.8-3.9,3.81h-6.75Zm-12.39-4.63v.94c0,3.76,0,3.76-3.7,3.68-4.1-.08-6.09-3.5-4.15-7.14,1-1.86,3.85-2.83,6.64-2.16,2.22.53.84,2.36,1.2,3.57A4.11,4.11,0,0,1,201.26,54.44Z"/><path class="cls-1" d="M192.07,79.85c1.46,4.64,2.94,9.13,4.26,13.67.4,1.38,1.11,1.61,2.39,1.66s1.8-.5,2.12-1.69c1.41-5.25,2.91-10.47,4.36-15.7.17-.63.82-1.61-.42-1.76-.88-.11-2-.62-2.44,1.11-1.12,4.66-2.47,9.27-3.83,14.25-1.48-4.77-2.89-9.24-4.25-13.72-.34-1.12-.74-1.79-2.15-1.76s-1.79.56-2.16,1.73c-1.43,4.46-3,8.88-4.26,13.71-1-1.9-1.13-3.82-1.63-5.6-.82-2.88-1.57-5.78-2.23-8.7-.36-1.54-1.48-1.11-2.37-1-1.3.12-.7,1.17-.55,1.75,1.4,5.24,2.91,10.46,4.3,15.71a1.9,1.9,0,0,0,2.16,1.71,2,2,0,0,0,2.32-1.75c1.24-4.31,2.64-8.59,4-12.87A4.44,4.44,0,0,1,192.07,79.85Z"/><path class="cls-1" d="M155.47,67.47a3.27,3.27,0,0,0-3.9-3,12.26,12.26,0,0,0-3.64,1.47q-8,4.41-16.06,8.86A8.76,8.76,0,0,0,130,76c-.89.88-1.89,2-1.17,3.24a3.13,3.13,0,0,0,3.57,1.4c2.84-.68,5.3-2.16,7.83-3.48,4.43-2.31,8.83-4.65,13.25-7A3.13,3.13,0,0,0,155.47,67.47Z"/><path class="cls-1" d="M70.64,89.9a7.6,7.6,0,0,0,3.89-1q8.49-4.38,17-8.8a5.78,5.78,0,0,0,1-.57c1.43-1.1,2.11-3,1.47-4a3.79,3.79,0,0,0-4.6-1.4c-3,1.5-6,3.13-8.91,4.76-3.5,1.93-7,3.92-10.45,5.86-1.47.82-2.3,2.06-1.9,3.7C68.4,89.8,69.72,89.93,70.64,89.9Z"/><path class="cls-1" d="M225.26,87.29c-.13-1.86.25-4.18-.14-6.47-.61-3.5-1.89-4.77-5.35-5.19A13.35,13.35,0,0,0,213,76.72c-.93.39-1.18.86-.77,1.87s1,1,1.84.58a9.93,9.93,0,0,1,4.36-.91,3.43,3.43,0,0,1,3.47,2c1,2.33.53,3-1.92,3.19a22.24,22.24,0,0,0-6.26.94c-2.94,1.09-4.41,3.24-4.07,6.16s2.28,4.65,5.45,4.9a7.46,7.46,0,0,0,6.2-2c.91-.92,1.31-.79,1.42.47.07,1,.63,1.22,1.53,1.19,1.05,0,1-.71,1-1.41C225.27,91.73,225.26,89.73,225.26,87.29Zm-3-.22a5.4,5.4,0,0,1-6,5.79c-2-.07-3.22-1-3.44-2.49a3.31,3.31,0,0,1,2.42-3.88c1.79-.66,3.69-.42,5.51-.73C221.94,85.57,222.49,86,222.3,87.07Z"/><path class="cls-2" d="M236.28,110.12c1.81-2.78,2-4,.75-5.11a4.75,4.75,0,0,0-5.25,0c-1.3,1.08-1.17,2.3.62,5.13-4.14,0-8.16,0-12.18,0-1,0-1.33-.48-1.27-1.41a21,21,0,0,1,0-2.25c.35-1.95-.75-2.26-2.29-2.26-3.28,0-4.75,1.6-4.2,4.79.17,1-.08,1.17-1,1.15q-3.76-.08-7.51,0c-1.24,0-1.62-.49-1.59-1.69.08-2.44.06-4.88,0-7.32,0-.57.4-1.47-.8-1.5s-1,.75-1,1.41c0,2.62,0,5.25,0,7.88,0,1.71.84,2.7,2.44,2.66,5-.13,10.1.57,15.12-.4,1-.19,1.81.54,2.85.48,4.54-.27,9.08.12,13.65-.36a44.21,44.21,0,0,1,6,.34c1,0,1.49-.16,1.46-1.31-.06-3.12,0-6.25,0-9.38,0-.58.15-1.28-.85-1.32-1.18,0-.91.77-.92,1.4,0,2.44-.09,4.88,0,7.31.08,1.5-.41,2-1.86,1.79A16.82,16.82,0,0,0,236.28,110.12Zm-19.07-2.53c-.24,1.09.6,2.61-1.53,2.57-1.64,0-1.49-1.14-1.59-2.14-.17-1.66.93-2.28,2.28-2.3C218,105.7,216.72,107.09,217.21,107.59Zm17.1-1.92c.85.09,1.62.35,1.81,1.3.14.69-1.28,2.59-1.78,2.4a2.6,2.6,0,0,1-1.68-2.28C232.6,106.13,233.41,105.77,234.31,105.67Z"/><path class="cls-1" d="M170.07,93a9.91,9.91,0,0,1,.43,1.37c.19,1.19,1.12.74,1.78.79.82.06.81-.58.81-1.16,0-5.5,0-11,0-16.51,0-1.36-.65-1.45-1.72-1.53-1.33-.1-1.44.59-1.37,1.56a73.77,73.77,0,0,1-.16,10.3c-.24,3.59-2.88,5.61-6.41,5a3.71,3.71,0,0,1-3.5-4.09c0-3.68-.08-7.38,0-11.06,0-1.33-.4-1.71-1.69-1.72s-1.56.55-1.53,1.69c.09,3.93-.14,7.89.21,11.8.43,4.89,3.66,7,8.54,6C167.58,95,168,94.77,170.07,93Z"/><path class="cls-1" d="M169.42,57.63c0-2.62,0-5.25,0-7.87,0-.94.34-2-1.33-2s-1.81.9-1.8,2.17c0,4.37,0,8.74,0,13.11,0,.68,0,1.37,0,2.06-.05,2.63-1.13,3.56-3.68,2.87-1.18-.32-1.87-.36-2.12,1s.81,1.51,1.67,1.72a9.38,9.38,0,0,0,2.77.33c2.93-.22,4.42-2,4.49-5.16C169.46,63.12,169.42,60.37,169.42,57.63Z"/><path class="cls-1" d="M236,78.84a17.17,17.17,0,0,1-.14-1.77c0-.94-.51-1.11-1.32-1.13s-1.27.2-1.27,1.14c0,5.63,0,11.26,0,16.89,0,1.29.83,1.11,1.64,1.17s1.37-.24,1.35-1.25c0-3,0-6,0-9-.11-4.56,3-7.12,6.88-6.49,1.5.24.86-1,1.13-1.63.4-.87-.15-1.08-.88-1.16a6.68,6.68,0,0,0-5.93,2.12C237.05,78.11,236.88,78.74,236,78.84Z"/><path class="cls-2" d="M182.89,110.12c-4.58,0-9.14,0-13.7,0-.87,0-1.05-.34-1-1.1,0-1.19,0-2.38,0-3.57,0-.66-.1-1-.89-1s-.92.31-.9,1c0,1.87,0,3.75,0,5.62,0,.85,0,1.69-1.21,1.71-.62,0-.65.43-.66.9,0,.7.5.6.91.61a2.08,2.08,0,0,0,2.34-1.46c.29-1.21,1-1.17,1.93-1.17,5.88,0,11.76-.09,17.63,0,1.74,0,2.14-.5,2-2.07a16.22,16.22,0,0,1,0-3.75c.16-1.24-.5-1.48-1.43-1.62-3.52-.55-5.44,1.32-5,4.89A8.12,8.12,0,0,1,182.89,110.12Zm4.89-2.3c-.27,1,.63,2.36-1.44,2.37-1.88,0-1.76-1.25-1.87-2.32a2.06,2.06,0,0,1,2.43-2.19C188.5,105.86,187.3,107.21,187.78,107.82Z"/><path class="cls-1" d="M178,50.46c0,3.37,0,6.74,0,10.11,0,.89,0,1.6,1.24,1.56,1.07,0,1.85-.23,1.85-1.52,0-7.12,0-14.23,0-21.35,0-1.08-.56-1.2-1.42-1.18-1,0-1.67.37-1.67,1.52,0,3.37,0,6.74,0,10.11C178,50,178,50.21,178,50.46Z"/><path class="cls-2" d="M163.33,105.45c0-1.5,0-3,0-4.5,0-.59.14-1.28-.85-1.33s-.94.56-.94,1.21c0,3.19,0,6.38,0,9.57,0,.64-.08,1.26.91,1.24s.88-.7.88-1.31C163.34,108.71,163.33,107.08,163.33,105.45Z"/><path class="cls-2" d="M198.68,108.51c0-1.06,0-2.12,0-3.17,0-.58-.07-1-.78-.92s-1,.11-1,.92c.05,1.87,0,3.74,0,5.6,0,.87,0,1.81-1.27,1.85-.59,0-.61.51-.58,1,.05.7.62.49,1,.49a2.45,2.45,0,0,0,2.61-2.56c.1-1,0-2.12,0-3.18Z"/><path class="cls-2" d="M244.4,105.8v4.88c0,.54,0,1,.78,1s.81-.36.8-.93c0-3.38,0-6.76,0-10.13,0-.55,0-1-.78-1s-.81.37-.8.93Z"/><path class="cls-2" d="M159.34,108.52c0-1,0-2.11,0-3.16,0-.56-.06-1-.78-1s-.82.35-.82.94c0,1.8,0,3.6,0,5.4,0,.94,0,1.93-1.31,2-.66,0-.55.57-.55,1,0,.7.54.52.94.52a2.19,2.19,0,0,0,2.46-2.2c.08-1.18,0-2.36,0-3.54Z"/><path class="cls-2" d="M187.16,101.49c-.52.74-1.14.2-1.79,0a1,1,0,0,0-.79.36c-.31.44-.31,1.25.17,1.26,1.11,0,2.29.45,3.34,0,.49-.23.3-.88,0-1.33S187.59,101.51,187.16,101.49Z"/><path class="cls-2" d="M215.15,103.38c.52-.56,1.19-.09,1.88,0s.9-.41.87-1-.7-1.29-1.05-.86c-.82,1-2.66-1.29-2.83,1C214,103.16,214.39,103.43,215.15,103.38Z"/></svg>