<svg id="Layer_1" data-name="Layer 1" xmlns="http://www.w3.org/2000/svg" viewBox="0 0 316.74 154.87"><defs><style>.cls-1{fill:#9f9f9f;}.cls-2{fill:#fff;}</style></defs><title>LogoPartner</title><path class="cls-1" d="M92.6,76.81H66.36c-3.47,0-3.79.34-3.79,3.75,0,3.73,0,7.45,0,11.18,0,3.24.43,3.68,3.65,3.68l37.71-.05c5.26,0,10.53.06,15.79,0,3,0,3.38-.47,3.39-3.4,0-4-.11-8,0-11.94.09-2.5-1-3.3-3.3-3.29C110.78,76.84,101.69,76.81,92.6,76.81Z"/><path class="cls-1" d="M160.13,95.43q13.25,0,26.49,0c3.3,0,3.77-.37,3.64-3.64a96.34,96.34,0,0,1,0-11.65c.2-2.35-.77-3.35-3.21-3.34q-27,.08-54,0c-2.24,0-3.44.67-3.31,3.25.19,4,0,8,.05,11.94,0,3.1.37,3.44,3.57,3.44Z"/><path class="cls-1" d="M93,42.62c9.07,0,18.15-.06,27.22,0,2.31,0,2.77-.64,2.12-2.82A22,22,0,0,0,102,24.34c-12.3-.07-24.59,0-36.89-.06-1.86,0-2.59.57-2.55,2.46.09,4.32.08,8.63,0,13,0,2.18.81,3,3,3C74.72,42.58,83.88,42.62,93,42.62Z"/><path class="cls-1" d="M160.14,42.62c9.16,0,18.33,0,27.5,0,2.2,0,2.58-.64,2-2.71A22,22,0,0,0,169,24.33c-12.13,0-24.27,0-36.41,0-2,0-2.92.47-2.84,2.69q.22,6.34,0,12.7c-.09,2.41.84,3,3.13,3C142,42.56,151.05,42.62,160.14,42.62Z"/><path class="cls-1" d="M168.62,50.73c-5.86,0-11.71,0-17.57,0a21.87,21.87,0,0,0-20.57,15.63c-.57,1.93-.16,2.75,2.08,2.73,11-.08,22.07.12,33.1-.1,5.86-.11,11.6-1,16.47-4.88a23.74,23.74,0,0,0,7.62-11.42c.6-1.75-.32-2-1.77-2-6.45,0-12.91,0-19.36,0Z"/><path class="cls-1" d="M101.35,50.74c-5.94,0-11.88-.06-17.82,0-9.2.11-18,7.07-20.31,16-.41,1.54-.19,2.39,1.71,2.38C76.3,69,87.67,69.24,99,69c6.76-.16,13.27-1.58,18.19-6.93a25.42,25.42,0,0,0,5.12-8.64c.72-2,.34-2.76-1.91-2.73-6.36.1-12.73,0-19.09,0Z"/><path class="cls-1" d="M227.14,95.45c4.73-.16,9.47.21,14.21-.41,8.55-1.13,14.79-7.84,15.7-16.68.12-1.15-.56-1.23-1.39-1.23H243.19a1.37,1.37,0,0,0-.74.1c-4.45,3-9.5,1.8-14.33,2-3.31.12-6.62,0-9.92.05a7.63,7.63,0,0,1-3.69-.76c-5.24-2.74-10.83-.79-16.23-1.33-.9-.09-1.06.61-1,1.37C197.52,88.2,204.32,94,212.41,95,217.31,95.66,222.23,95.31,227.14,95.45Z"/><path class="cls-1" d="M225.92,24.32c-4.35.36-9.73-.71-15,.52-7.12,1.67-13.07,8.7-13.39,15.46-.09,1.72.25,2.49,2.14,2.36,2.11-.15,4.24,0,6.36,0,3,0,6.09.37,8.77-1.63a4.55,4.55,0,0,1,2.41-.65c6.86-.25,14-1.45,20.49.42,5.86,1.68,11.56,1.75,17.42,1.89,1.72,0,2-.4,1.85-2.19a18.36,18.36,0,0,0-19.38-16.19C234,24.55,230.45,24.32,225.92,24.32Z"/><path class="cls-2" d="M106.72,123.93h-3.27c-4,0-4,0-5.1-3.58a4.3,4.3,0,0,0-5.51-3c-.67.18-.73.52-.75,1.06,0,.78.31,1,1,1,1.61,0,3,.26,3.08,2.45,0,1.56-.48,2.2-2,2-.75-.07-1.53,0-2.29,0s-.93.51-.92,1.17.32,1,.93.89c1.88-.22,3.88.63,5.65-.58.33-.23.52-.3.82,0,1.08,1,2.42.6,3.65.61,6,0,12.09,0,18.14,0a49.93,49.93,0,0,0,6.27-.06c3.46-.46,6.76.4,10.13.09,1.16-.1,1.39-.53,1.38-1.55,0-3.73,0-7.45,0-11.18,0-1-.07-1.59-1.32-1.59s-1.2.83-1.2,1.67c0,2.88,0,5.76,0,8.64,0,1.06.12,2.07-1.49,1.9-1.33-.14-2.87.18-3.08-1.78a10.31,10.31,0,0,0-.35-2,3.54,3.54,0,0,0-4-2.8c-2.1.13-3.73,1.34-3.77,3.39-.06,2.92-1.54,3.32-3.92,3.17a63,63,0,0,0-6.87,0c-2,.09-2.85-.59-3.16-2.65-.54-3.66-2.68-4.81-5.93-3.51-.4.16-1.23,0-.9.77.21.51,0,1.61,1.09,1.36C106.48,119.13,106.46,121.53,106.72,123.93Zm21.9-2c-.21,1.08-.56,2.1-2,2a1.85,1.85,0,0,1-1.86-1.95,2,2,0,0,1,1.82-2.26C128,119.66,128.37,120.75,128.62,121.92Z"/><path class="cls-1" d="M197.08,59.9c0,2.37.06,4.74,0,7.11-.05,1.48.35,2.16,2,2.08,2.37-.11,4.75-.07,7.12,0,1.49,0,2.16-.48,2.14-2,0-4.82-.06-9.64,0-14.46,0-1.48-.54-1.91-1.94-1.86-2.46.08-4.92.11-7.37,0-1.67-.09-2,.65-1.94,2.1C197.14,55.16,197.08,57.53,197.08,59.9Z"/><path class="cls-1" d="M256.7,59.71c0-2.45,0-4.9,0-7.35,0-1.17-.37-1.67-1.6-1.65-2.62.06-5.25.07-7.88,0-1.36,0-1.74.54-1.72,1.81q.06,7.23,0,14.46c0,1.49.5,2.16,2.07,2.11q3.67-.12,7.37,0c1.32,0,1.8-.44,1.76-1.76C256.65,64.79,256.7,62.25,256.7,59.71Z"/><path class="cls-2" d="M208,126c4.24,0,8.48,0,12.72,0,1.41,0,2-.33,1.87-1.82-.15-2.73.48-5.77-3.36-6.63-.74-.16-.92-.59-.41-1.28.64-.88,1.13-1.89,1.8-2.75s0-1-.38-1.36c-.55-.54-1.05-.58-1.47.06a39.15,39.15,0,0,0-3.17,5.15c-.69,1.54-.29,2.83,1.92,2.49s2.66.74,2.56,2.66c-.05,1.17-.52,1.38-1.54,1.38-5.77,0-11.54-.08-17.3,0-1.66,0-1.64-.79-1.72-2-.24-3.59-2.59-5.44-5.4-4.37a4.71,4.71,0,0,0-2.82,5.1c.39,2.4,1.84,3.39,4.24,3.35C199.66,126,203.82,126,208,126Zm-10.91-3.71c-.3.4.57,1.71-.95,1.59-1.27-.1-2.56-.35-2.59-2.07,0-1.17.48-2,1.68-2C196.79,119.69,197.12,120.78,197.06,122.31Z"/><path class="cls-2" d="M255.18,121.87a9.5,9.5,0,0,0,0-1.77c-.15-.77.65-2.07-1-2.09s-1,1.38-1.15,2.23a17.13,17.13,0,0,0,0,2c0,.72.19,1.68-1,1.61-.87,0-1.71-.34-1.86-1.37a9.85,9.85,0,0,1-.05-2c.06-.92-.4-1.16-1.22-1.15s-1.36.08-1.3,1.07a9.64,9.64,0,0,1,0,1.52c-.07.77.35,1.9-1,1.94a1.91,1.91,0,0,1-2-1.87c-.06-.5,0-1-.08-1.52-.12-.74-.75-.54-1.22-.54-1.13,0-.87.9-.8,1.47.25,2.09-.69,2.67-2.66,2.57-2.54-.15-5.09-.1-7.64,0-2.14.06-3.21-.78-3-3,0-.51,0-1,0-1.53,0-.85-.07-1.48-1.2-1.44s-1.16.73-1.15,1.54c0,1.95,0,3.9,0,5.85,0,1.38-.05,2.88-2.19,2.5-1.08-.19-1,.61-1,1.28-.08.84.44.89,1.1,1a3.65,3.65,0,0,0,4.41-3.16c.23-1.21.65-1,1.49-1,3.82.08,7.76.6,11.42-.15,2.5-.52,5.12,1.59,7.45-.59.14-.12,2,.75,3.21.83,1.86.11,2.92-.28,2.53-2.42A10.57,10.57,0,0,1,255.18,121.87Z"/><path class="cls-2" d="M185.33,119a7.3,7.3,0,0,0-.5-3.69c-.68-2-1.78-3.51-4.27-3.6s-4.24.87-5,3.32a13.87,13.87,0,0,0-.07,7.69,4.56,4.56,0,0,0,4.76,3.73c2.47,0,4-1.55,4.62-3.94A8.48,8.48,0,0,0,185.33,119Zm-2.51.39a7.52,7.52,0,0,1-.17,2.08c-.41,1.26-.85,2.61-2.66,2.52-1.65-.08-1.93-1.29-2.31-2.52a9.55,9.55,0,0,1,.1-5.48,2.6,2.6,0,0,1,2.24-2.13c1.23-.08,1.89.77,2.37,1.89A9.79,9.79,0,0,1,182.82,119.4Z"/><path class="cls-2" d="M166.22,124c1.58-1.47,2.72-2.56,3.89-3.61a8.63,8.63,0,0,0,2.38-2.91,4.14,4.14,0,0,0-1.9-5.4c-2.43-1.09-5.63-.23-6.64,1.84-.26.54-1,1.28-.1,1.73.66.32,1.59.66,2.21-.34.9-1.45,2.19-2.12,3.53-.79s.29,2.67-.74,3.7c-1.49,1.5-3,3-4.63,4.34a2.57,2.57,0,0,0-.87,2.95c.38,1.06,1.48.47,2.24.51,1.95.08,3.9,0,5.85,0,.72,0,1.34,0,1.34-1s-.55-1.06-1.3-1C170,124,168.43,124,166.22,124Z"/><path class="cls-2" d="M154.84,124c1.66-1.77,3.14-3.33,4.61-4.92,2-2.19,2-4.76,0-6.44a5.5,5.5,0,0,0-7.27.92c-.49.67-.89,1.52-.25,2a1.48,1.48,0,0,0,2.34-.37c.84-1.4,2-1.89,3.35-.72,1.5,1.32.42,2.42-.54,3.41-1.66,1.69-3.32,3.39-5.07,5a2.4,2.4,0,0,0-.79,2.5c.29,1.26,1.39.61,2.11.64,2,.09,4.07,0,6.11,0,.63,0,1.37.19,1.43-.9s-.65-1.15-1.46-1.14Z"/><path class="cls-2" d="M86.45,126c-.47,2.28-2,2.3-3.56,2.22-.78,0-1.5-.33-1.53.95,0,1.11.35,1.39,1.44,1.44,4,.19,5.75-1.36,5.79-5.42,0-1.35,0-2.71,0-4.06a3.58,3.58,0,0,0-3.82-3.78,4.75,4.75,0,0,0-4.37,4.44,3.94,3.94,0,0,0,3.5,4.2C84.7,126.09,85.53,126,86.45,126Zm0-3.89c-.07.88.27,2-1.13,1.78s-2.48-.49-2.46-2.2c0-1.23.62-2,1.77-2C86.18,119.78,86.38,121,86.47,122.13Z"/><path class="cls-2" d="M65.36,126c1.86.47,2.83-.14,2.7-2.7-.24-4.22-1.13-5.88-3.9-5.95a4.47,4.47,0,0,0-4.48,4.76C59.74,124.89,61.29,126,65.36,126Zm.23-3.76c-.07.76.29,1.85-1.13,1.65S62,123.37,62,121.66a1.74,1.74,0,0,1,1.85-1.91C65.42,119.79,65.69,121,65.59,122.26Z"/><path class="cls-2" d="M73.94,126c3.93,0,3.93,0,3.91-3.78,0-4.15-1.24-5.24-5.35-4.88-.71.06-1.33,0-1.32,1s.47,1.09,1.26,1.09c1.86,0,3.32.42,3.37,2.77,0,1.33-.39,1.83-1.72,1.7-.93-.09-1.87,0-2.8,0-.68,0-1.1.16-1.13,1s.41,1.15,1.23,1.12S73.09,126,73.94,126Z"/><path class="cls-2" d="M143.56,119.09c0-1.93,0-3.87,0-5.81,0-1-.11-1.57-1.34-1.54-1.08,0-1.22.53-1.22,1.41,0,3.87,0,7.75,0,11.62,0,1,.38,1.27,1.34,1.28s1.23-.52,1.22-1.4C143.53,122.8,143.56,120.94,143.56,119.09Z"/><path class="cls-2" d="M249.24,114.31c-.5.4-.76.08-1-.1a1.23,1.23,0,0,0-2,.15.85.85,0,0,0,.17,1.32,1.2,1.2,0,0,0,2-.26c.38-.62.54-.74,1-.1.59.88,1.52,1.07,2.07.22s.09-1.66-1.07-1.72c-.65,0-.9-.1-.49-.83s.15-1.49-.82-1.69a1.07,1.07,0,0,0-1.29.57c-.5,1,.33,1.29,1,1.59A.65.65,0,0,1,249.24,114.31Z"/><path class="cls-2" d="M194,113.87a1.14,1.14,0,0,0-1.27.58c-.3.42-.11.78.19,1.11s1,.71,1.31.36c1-1,1.69-.63,2.64,0a.85.85,0,0,0,1.22-.81c0-.8-.42-1.62-1.07-1.25C195.83,114.61,194.84,114.75,194,113.87Z"/><path class="cls-2" d="M62.43,116c.69-.13,1.19-.42,1.1-1.17a1.12,1.12,0,0,0-1.21-1,1.07,1.07,0,0,0-1.2,1C61.1,115.68,61.73,116,62.43,116Z"/><path class="cls-2" d="M66.61,115.05a1.07,1.07,0,0,0-1.19-1.23c-.78,0-1,.54-1,1.11a1,1,0,0,0,1.1,1.08C66.07,116,66.64,115.86,66.61,115.05Z"/></svg>