<svg id="Layer_1" data-name="Layer 1" xmlns="http://www.w3.org/2000/svg" viewBox="0 0 316.74 154.87"><defs><style>.cls-1{fill:#fff;}</style></defs><title>LogoPartner</title><path class="cls-1" d="M121.33,87.48c-4.5,3.58-9.15,7.34-13.86,11-1.31,1-1.88,1.87-.53,3.27,6.57,6.8,11.92,14.6,17.87,21.92,1.53,1.88,2.41,1.88,4.12.42,4.29-3.67,8.73-7.16,13.72-11.23,0,6,.11,11.42-.05,16.79-.07,2.37.37,3.37,3.08,3.31q13.56-.27,27.13,0c2.71.05,3.14-1,3.07-3.37-.16-5.55,0-11.11,0-16.89,5.12,2.69,8.26,7.39,13,10.18,2.1,1.24,3.05,1.37,4.58-.62,5.61-7.23,11.37-14.34,17.11-21.46,1.2-1.48,1.59-2.43-.35-3.83-4.94-3.57-9.66-7.44-14.82-11.47,6.05-.75,11.7-2.16,17.38-3.37,2.13-.45,2.71-1.2,2.21-3.3-2.21-9.21-4.3-18.46-6.42-27.7-.37-1.58-.91-2.18-2.85-1.65-6,1.63-12.09,2.92-18.39,4.4,3.72-5.13,5.62-10.92,8.45-16.23.73-1.37.54-2.2-1-2.79-3.39-1.28-6.27-3.78-10.1-4-2.32-.15-3.1-2.69-5.24-3.45a61.49,61.49,0,0,1-9.95-4.79C167.13,21.29,166,21.85,165,24c-2.35,5.26-4.76,10.51-7.25,16-2.53-5.27-5.1-10.36-7.43-15.57-.86-1.91-1.62-2.4-3.61-1.41-8.28,4.12-16.62,8.13-25,12.1-2,.92-2.64,1.76-1.44,4,2.17,3.94,4,8.09,5.93,12.14.42.85,1.25,1.72.56,2.61s-1.83.37-2.72.18c-4.13-.9-8.28-1.78-12.36-2.89-2.19-.59-3.15-.29-3.66,2.16-1.92,9.09-4,18.14-6.21,27.16-.47,1.94-.06,2.94,1.84,3.1A63.65,63.65,0,0,1,121.33,87.48Zm36.5-40.13c4.72,11.41,12.42,15.54,24.71,10.22-3,5.37-4.57,10.05-3.21,15.33,1.3,5.09,4.52,8.62,9.22,11.48-5.4.75-9.75,2.55-12.9,6.52s-3.9,8.74-3.28,14.5c-9-8.29-17.67-7.31-26.81.35,1.25-5.35-.8-8.83-2.41-12.11-2.36-4.8-6.85-7.24-12.27-7.73a12.08,12.08,0,0,1-1.76-.4c.33-.65.29-1.38,1.35-1.72,3.26-1.05,4.78-3.89,6-6.76,2.6-6,1.52-11.64-2.09-17.19C146.09,62.9,156.47,56,157.83,47.35Z"/></svg>