<svg id="Layer_1" data-name="Layer 1" xmlns="http://www.w3.org/2000/svg" viewBox="0 0 316.74 154.87"><defs><style>.cls-1{fill:#b28b50;}</style></defs><title>LogoPartner</title><path class="cls-1" d="M150.94,100.18c0-.12.09-.42,0-.52A43.87,43.87,0,0,1,146.57,94c-1.17-1.58-2.24-3.25-3.53-4.72s-2-3.24-3.33-4.48c-2.78-2.65-4.46-6.07-6.84-9-4.14-5.09-8.52-10-11.75-15.84-.75-1.35-2.11-2.37-3.08-3.66a12.46,12.46,0,0,0-1.91-2.63c-.56-.44-.07-.7,0-1.12.34-2.25,1.79-4,2.5-6.1a21.18,21.18,0,0,1,1.9-4.18c.92-1.53,1-3.49,1.89-5.09,0-.07-.15-.38-.3-.46s-.55-.08-.59,0c-1.27,3-4.69,4.15-5.94,7.14-.11.26-.42.46-.65.66-2.45,2.15-4.1,5-6.55,7.21-1.21,1.07-1.18,1.66-.1,2.74,2.89,2.88,5.47,6,8.23,9,2.13,2.3,4.41,4.5,6.4,6.91a156.83,156.83,0,0,0,12.76,13.89A11.47,11.47,0,0,1,137.54,87c1.6,2.73,4.6,4.23,6,7.1,2.19.75,2.72,2.9,3.95,4.49a10.84,10.84,0,0,0,2.87,2C150.42,100.6,151,100.87,150.94,100.18Z"/><path class="cls-1" d="M191.85,38.85c0,.08,0,.65.2.82,1.43,1,1.16,2.83,2.1,4.13a12.71,12.71,0,0,1,1.48,4.32,11.69,11.69,0,0,0,1.83,3.56,1.6,1.6,0,0,1,0,2.31c-.8,1-1.31,2.19-2.15,3.11a57.39,57.39,0,0,0-3.72,5c-2.25,3-4.68,5.89-7,8.89a58.46,58.46,0,0,0-4.55,6.47c-1,1.86-2.7,3.12-3.84,4.89-2.07,3.2-5.08,5.76-6.72,9.3-2.42,2-3.67,5-5.91,7.15a4.76,4.76,0,0,0-.85.89,1,1,0,0,0,0,.88.87.87,0,0,0,.88,0,14.62,14.62,0,0,0,3-3.07,24.59,24.59,0,0,1,4.24-4.73,53.62,53.62,0,0,0,7.64-8.91.92.92,0,0,1,.22-.22c3.18-2.74,5.42-6.36,8.52-9.17,1.13-1,2.54-1.75,3.35-3.14a10,10,0,0,1,3.29-2.92c.58-.41.47-1,.82-1.49s.7-1.13,1.14-1.68c2.38-3,5.17-5.6,7.55-8.59a23.19,23.19,0,0,0,2.33-3c.37-.68.44-1-.1-1.53a67.94,67.94,0,0,1-6-6.83c-2.12-2.69-5.1-4.6-6.7-7.71-.06-.12-.35-.16-.53-.17a.49.49,0,0,0-.55.56Z"/><path class="cls-1" d="M193.09,53.72c-2.35,0-4.48-1.35-6.82-.86-1,.21-1.55-.82-2.54-.66a8.37,8.37,0,0,1-2.78,0c-1.38-.26-2.09-1.38-2.74-2.53-2.56-4.52-5.15-9-7.73-13.53a6.3,6.3,0,0,0-.59-.73c-.16.27-.38.48-.33.6.84,2.49.42,5.27,1.66,7.67a4,4,0,0,1,.13,2.4c-.12.91.66,1.39.71,2.23a15.71,15.71,0,0,0,1.13,5.4c.18.42-.15.71-.27,1.07-.8,2.36-1.23,4.88-2.3,7.1s-.81,4.8-2.32,6.79c-.52,4.35-2.55,8.25-3.75,12.4-.4,1.38-1.37,2.49-1.3,4.14.05,1.26-.75,2.55-1.15,3.83-.63,2-1.33,4-1.81,6a2.78,2.78,0,0,1-.76,1.56c-.21.2-.54.5-.5.7.37,1.91-1.3,3.63-.45,5.64,2-4.18,3.88-8.4,5.79-12.57a63.49,63.49,0,0,0,2.82-6.9c.75-2.33,2.15-4.44,3.09-6.76a74.16,74.16,0,0,1,3.22-7c1-1.79,1.53-3.71,2.37-5.53s2.14-3.42,2.44-5.51c.11-.7.93-1.29,1.09-2s.5-.85,1-.73c1.76.4,3.28-.85,5-.64s3.24-.87,5-.68C191.28,54.72,192.12,53.92,193.09,53.72Z"/><path class="cls-1" d="M155.2,101.6c.25-.24.16-.73.06-1.06-1.29-4-2.38-8.1-3.8-12.05-1.31-3.6-2.15-7.33-3.55-10.9-1.67-4.27-2.6-8.81-4.2-13.12-.53-1.43-.6-3-1.32-4.42a20.4,20.4,0,0,1-1.22-4.42,7.55,7.55,0,0,1,.21-4.77,13.63,13.63,0,0,0,.85-4.28c.1-1.49.77-2.81,1-4.26a40.43,40.43,0,0,0,.64-6.75q-2.9,5-5.78,10a31.53,31.53,0,0,0-2.55,4.51,2.94,2.94,0,0,1-3.14,2.08c-2.65-.13-5.15,1.07-7.8.68-1.2.83-2.65.58-4,.87,1.79.13,3.35,1,5.14,1.08,2.42.17,4.78,1,7.23,1.19,1.16.12,1.64,1,2.12,2.24,1.45,3.62,3.34,7.07,4.93,10.65a75.86,75.86,0,0,1,3.6,8.73,32.93,32.93,0,0,0,3,6.16c2,3.61,3.15,7.57,4.93,11.27a26,26,0,0,1,2.11,4.72C153.81,100.34,153.79,101.51,155.2,101.6Z"/><path class="cls-1" d="M141.14,23.09a3.54,3.54,0,0,0,.75,3,18,18,0,0,1,2.18,4.36c.25,1,.9.85,1.34.69a32.62,32.62,0,0,1,12.88-1.82c1.28.06,2.53-.14,3.8.56,1,.54,2.29-.31,3.49.6.74.56,2.17-.32,3.12.67.2.2.64,0,.87-.51.86-1.92,1.8-3.81,2.8-5.66a2.75,2.75,0,0,0,.27-1.13c0-.34-.07-.63-.39-.72s-.75-.07-.79.26c-.15,1.16-1,1.65-1.84,2.21a5.21,5.21,0,0,1-4.37.53,10.11,10.11,0,0,1-5-3.07c-1.28-1.49-2.46-3-2.53-5.16,0-.31-.64-.89-.78-.84a1.94,1.94,0,0,0-1,.92c-.25.62,0,1.31-.28,2.05-1.39,3.71-4.52,5.22-7.92,6.12-2.42.63-4.15-1-5.43-2.93-.21-.31-.16-.77-.71-.72C140.76,22.55,141.12,23.21,141.14,23.09Z"/><path class="cls-1" d="M95.78,117c0-2.27,0-4.54,0-6.8,0-.91-.39-1-1.1-1s-.79.37-.79,1c0,4.53,0,9.06,0,13.59,0,.91.39,1,1.1,1s.79-.37.79-1C95.76,121.54,95.78,119.27,95.78,117Z"/><path class="cls-1" d="M176.36,117c0,2.26,0,4.52,0,6.78,0,.91.4,1,1.1,1s.8-.36.79-1c0-4.22,0-8.43,0-12.65,0-.49.12-1-.39-1.39-.31-.23-.54-.62-1-.51s-.45.57-.45,1C176.36,112.48,176.36,114.75,176.36,117Z"/><path class="cls-1" d="M187.51,117.34c0,2.16,0,4.32,0,6.48,0,.6.08.94.8,1s1.1-.1,1.09-1c0-4.21,0-8.43,0-12.64,0-.38.19-.82-.19-1.15s-.62-.88-1.23-.73-.43.59-.43,1Z"/><path class="cls-1" d="M103.47,124.13A1.31,1.31,0,0,0,105,123a5.34,5.34,0,0,1,1.1-2.65c.53-.87-.37-2.12.83-2.75-.51-1.93-.4-4.08-2-5.67a.9.9,0,0,0-.84-.2c-.73.07-.34.76-.28.9.85,1.82.39,3.76.64,5.61.17,1.31-.76,2.25-.68,3.46,0,.59-.47.46-.84.58-.65.22-.38.85-.38,1.32S103.08,124.14,103.47,124.13Z"/><path class="cls-1" d="M222.84,125.34c0-4.35,0-8,0-11.67,0-.79-.53-.7-1-.7s-.84,0-.84.57c0,3.08,0,6.15,0,9.22C221,123.76,222.07,124,222.84,125.34Z"/><path class="cls-1" d="M131.08,115.17a2.31,2.31,0,0,1,1.93,2.77c-.17,1.93,0,3.88-.06,5.82,0,.84.29,1,1.05,1s.85-.28.84-.91c0-2.25,0-4.5,0-6.75a1.93,1.93,0,0,0-1.94-2.25A1.84,1.84,0,0,0,131.08,115.17Z"/><path class="cls-1" d="M110,119.8c0,1.44,0,2.87,0,4.31,0,.83.62.61,1.08.63s.79,0,.79-.62c0-2.67,0-5.34,0-8,0-.51-.37-.71-.65-1a1.16,1.16,0,0,0-.78-.3c-.31,0-.46.27-.45.63C110.05,116.93,110,118.36,110,119.8Z"/><path class="cls-1" d="M142.27,134.05c0,.81,0,1.41,0,2s-.33,1.47.32,1.65c.92.24,1.37-.54,1.53-1.4a1.33,1.33,0,0,1,.17-.29c.78,0,.22.77.62,1s.61.87,1.23.73.42-.81.44-1.26c0-.81,0-1.63,0-2.45,0-.39.18-.53.49-.63s.95.13.51-.53c-.27-.4-.63-.88-1.23-.68a1.06,1.06,0,0,0-.65.59c-.29,1.27-1.14,1.41-2.21,1.25A12.14,12.14,0,0,0,142.27,134.05Z"/><path class="cls-1" d="M206.11,114.89c0,3.24,0,5.77,0,8.3,0,.77.46,1.1.9,1.46s.94.16,1-.27c.07-2.34.07-4.69,0-7C207.93,116.42,206.9,116.19,206.11,114.89Z"/><path class="cls-1" d="M161.26,114.83c.73,1,1.71.21,1.91.83.25.81.91,1.43.83,2.44-.15,2-.05,4.09,0,6.13,0,.34.2.51.57.53s.64-.15.64-.46c0-2.65,0-5.31,0-8a1.41,1.41,0,0,0-1.49-1.49C163,114.8,162.3,114.83,161.26,114.83Z"/><path class="cls-1" d="M211.31,116.68c-.21.87-.52,1.66,0,2.39a3.21,3.21,0,0,0,2.24,1.26,10.34,10.34,0,0,1,2.42,1c.93.35,1.9.76,1.32,2.22,1-2.62.95-2.78-1.1-3.88a8.54,8.54,0,0,0-2.64-1.13A2.44,2.44,0,0,1,211.31,116.68Z"/><path class="cls-1" d="M171.06,115.39a3.7,3.7,0,0,0-2.47,2.59,4.21,4.21,0,0,0,.08,3.71,7.08,7.08,0,0,0,.8,1.54c.26.29.13,1.1.82.87.92-.31.22-.8.11-1.35a10.44,10.44,0,0,1,.39-6.39C170.92,116.08,171.61,116,171.06,115.39Z"/><path class="cls-1" d="M128,119.8c0-1.54,0-3.09,0-4.63,0-.29-.43-.4-.74-.33s-.43.18-.46.32a4,4,0,0,0,0,.92c0,2.67,0,5.35,0,8,0,.57.33.69.77.64a.52.52,0,0,0,.49-.62C128,122.68,128,121.24,128,119.8Z"/><path class="cls-1" d="M157.14,120.12c0,1.33,0,2.67,0,4a.52.52,0,0,0,.5.61c.45.05.76-.09.76-.65,0-2.57,0-5.14,0-7.71a7.22,7.22,0,0,1,0-.93.5.5,0,0,0-.5-.61c-.45,0-.76.09-.76.65C157.15,117,157.14,118.58,157.14,120.12Z"/><path class="cls-1" d="M146,123.51v-4.29a5.2,5.2,0,0,1,0-1.53c.15-.5,1.12-1,.35-1.45-.92-.54-1.27.37-1.64,1.11C143.7,119.4,143.71,122,146,123.51Z"/><path class="cls-1" d="M122.43,120.64v-3.72a1.37,1.37,0,0,0-1.25-1.44c-.15,0-.9-.12-.56.24,1.12,1.19.43,2.55.54,3.81s0,2.68,0,4c0,.44-.29,1.14.52,1.18,1,.06.67-.79.7-1.31C122.46,122.49,122.43,121.56,122.43,120.64Z"/><path class="cls-1" d="M139.79,115.43c0,2.87,0,5.72,0,8.58,0,.46.12.76.67.74s.58-.42.58-.83c0-2.24,0-4.48,0-6.72A1.63,1.63,0,0,0,139.79,115.43Z"/><path class="cls-1" d="M152.18,123.51a4,4,0,0,0,0-6.82Z"/><path class="cls-1" d="M160.39,134.05c-1-.08-1.83.16-2,1.26a2.05,2.05,0,0,0,.83,2.37,1.11,1.11,0,0,0,1.64-.86c.07-.48-.25-1,.2-1.42a1,1,0,0,0,.39-1.05C161.37,134.07,161.1,134,160.39,134.05Z"/><path class="cls-1" d="M203.33,124.59c-1.76-1-2-1.74-1.6-3.22.08-.27.16-.62-.15-.83s-.71-.12-1.06.17c-1.07.9-.71,2.12-.51,3.12a1.56,1.56,0,0,0,2,.92C202.31,124.69,202.6,124.68,203.33,124.59Z"/><path class="cls-1" d="M172.64,135c0-.41,0-.82,0-1.22s.08-.83-.45-.95-.75.2-1,.52a3,3,0,0,0,.23,3.5,1.15,1.15,0,0,0,.77.29c.31,0,.48-.26.45-.62S172.64,135.48,172.64,135Z"/><path class="cls-1" d="M193.71,119.9c0-1.75,0-3.16,0-4.56,0-.33-.2-.5-.57-.52a.57.57,0,0,0-.65.45C192.08,116.91,191.59,118.59,193.71,119.9Z"/><path class="cls-1" d="M135.52,135.41c-.36-.94.59-2.5-.84-2.48-1,0-.45,1.55-.42,2.35s-.71,2.4.71,2.36C136,137.61,135,136.06,135.52,135.41Z"/><path class="cls-1" d="M181.31,135c-.48.93.74,1.5.66,2.42,0,.08.5.31.75.28a.57.57,0,0,0,.42-.88c-1-.81-.46-1.88-.57-2.82,0-.37-.18-.57-.5-.6s-.79.06-.76.62C181.33,134.37,181.31,134.67,181.31,135Z"/><path class="cls-1" d="M155.29,135.6c-.23-.51.49-1.42-.49-1.52-1.3-.13-.73,1-.71,1.53,0,.71-.5,2,.43,2.06C156.17,137.77,154.82,136.24,155.29,135.6Z"/><path class="cls-1" d="M211.06,123.2a3.47,3.47,0,0,0,0,1.21c.26.57.88.34,1.35.32s.57-.52.46-.89-.46-.41-.58-.67c-.24-.52.5-1.65-.8-1.49C210.59,121.8,211.27,122.7,211.06,123.2Z"/><path class="cls-1" d="M197.43,120.49c-.38,1.13-1.36,2-1.23,3.06,0,.44-.29,1.09.5,1.19s.74-.44.73-1C197.42,122.68,197.43,121.58,197.43,120.49Z"/><path class="cls-1" d="M116.23,124.13v-3.72c-.72.21-1.28.62-1.22,1.43s-.37,1.64.33,2.27C115.51,124.26,115.93,124.13,116.23,124.13Z"/><path class="cls-1" d="M167.89,137.77c.3-.15.5-.38.4-.7-.26-.82-1-1.2-1.58-1.76a.62.62,0,0,0-.87.87,11.88,11.88,0,0,0,1.49,1.52C167.44,137.8,167.71,137.75,167.89,137.77Z"/><path class="cls-1" d="M153.42,135.29a4,4,0,0,0,0-.92c0-.14-.28-.27-.46-.31a.58.58,0,0,0-.74.33,1.72,1.72,0,0,0,0,.9c.16.62-.52,1.71.47,1.79C154.13,137.21,153.14,135.89,153.42,135.29Z"/><path class="cls-1" d="M110.27,112.33c.7.12,1-.07,1-.76s-.05-1.17-1-1.1c-.59,0-1,.1-.92.81S109.35,112.6,110.27,112.33Z"/><path class="cls-1" d="M196.81,112.88c0-1,0-2,0-3,0-.55-.3-.7-.75-.65s-.46.5-.51.9c-.13,1,1.35,1.56.43,2.82Z"/><path class="cls-1" d="M147.84,134.13c0,1.09,0,2.18,0,3.27,0,.29.38.41.71.36s.67-.29.48-.57a5.18,5.18,0,0,1-.61-3.08Z"/><path class="cls-1" d="M116.89,116.56a4.87,4.87,0,0,0-.14-.89.56.56,0,0,0-.8-.19,2.16,2.16,0,0,0,0,2.43c.16.12.67.17.79-.19A5.68,5.68,0,0,0,116.89,116.56Z"/><path class="cls-1" d="M201.46,115.46c-.47.48-1.15.85-.93,1.7.07.27.16.68.33.74a1.71,1.71,0,0,0,1.18,0c.64-.33,0-.55-.18-.8C201.56,116.59,202.07,115.89,201.46,115.46Z"/><path class="cls-1" d="M216.84,115.55c-.37.56-.13,1.18-.19,1.75s.33.67.76.62.46-.22.49-.6A1.55,1.55,0,0,0,216.84,115.55Z"/><path class="cls-1" d="M179.76,132.81a8.62,8.62,0,0,0,0,4.34A8.62,8.62,0,0,0,179.76,132.81Z"/><path class="cls-1" d="M164.26,135.17a4,4,0,0,0-.26,2.29c0,.1.48.29.74.28a.44.44,0,0,0,.45-.6C165,136.54,164.63,136,164.26,135.17Z"/><path class="cls-1" d="M137.91,133.81c0-.49.1-.93-.46-1-.73-.09-.8.37-.77.94,0,.4-.08.85.49.91S138,134.34,137.91,133.81Z"/><path class="cls-1" d="M174.7,135.26c-.15,0-.23.37-.2.8s-.22,1.06.61,1.09c.58,0,.65-.35.62-.78S175.93,135.31,174.7,135.26Z"/><path class="cls-1" d="M157.14,137.56c0-1.41,0-2.3,0-3.18,0-.29-.43-.41-.74-.32s-.75.1-.26.5C157,135.25,156.15,136.31,157.14,137.56Z"/><path class="cls-1" d="M177.49,137.05v-3c-.23.12-.49.18-.5.26,0,.89,0,1.78,0,2.68Z"/><path class="cls-1" d="M150.43,134.17v3.55A3.87,3.87,0,0,0,150.43,134.17Z"/><path class="cls-1" d="M138.82,134.65c-.44.68-.19,1.29-.28,1.87a.51.51,0,0,0,.47.61.73.73,0,0,0,.55-.09c.49-.37-.08-.49-.22-.62C138.83,135.94,139.53,135.2,138.82,134.65Z"/><path class="cls-1" d="M165.82,132.41c-.89,1.05-.53,1.76-.6,2.42a.55.55,0,0,0,.3.44c.59.09.26-.39.28-.58C165.85,134.12,165.82,133.54,165.82,132.41Z"/><path class="cls-1" d="M151.56,101.2c.1.47-.3,1.18.62,1.24C152.09,102,152.49,101.25,151.56,101.2Z"/><path class="cls-1" d="M139.79,115.18a.74.74,0,0,0-1-.29c-.26.1-.3.31-.11.39s.53.1.8.18S139.88,115.45,139.79,115.18Z"/><path class="cls-1" d="M167.11,133.5l-.36-.69c-.11.15-.31.32-.29.46a3,3,0,0,0,.29.78Z"/><path class="cls-1" d="M117.44,120a2.47,2.47,0,0,0-.78-.16.44.44,0,0,0-.4.59c0,.06.36,0,.55,0A.54.54,0,0,0,117.44,120Z"/><path class="cls-1" d="M152.17,116.14a.51.51,0,0,0-.35-.64,3.33,3.33,0,0,0-.24.76.54.54,0,0,0,.32.41C152.48,116.77,152,116.28,152.17,116.14Z"/><path class="cls-1" d="M116.87,124.79c.24-.13.54-.25.53-.29-.12-.5-.54-.32-.88-.38s-.44,0-.27.28S116.68,124.68,116.87,124.79Z"/><path class="cls-1" d="M120.57,115.17c-.12-.09-.28-.29-.36-.26-.24.07-.28.26-.12.36a2.5,2.5,0,0,0,.48.18Z"/><path class="cls-1" d="M152.18,123.51c-.43,0-.63.19-.62.62C152,124.14,152.2,123.94,152.18,123.51Z"/><path class="cls-1" d="M146.34,124.08c.08-.07.21-.17.2-.2s-.16-.3-.28-.36-.39,0-.27.26S146.23,124,146.34,124.08Z"/><path class="cls-1" d="M151.29,124.13c-.1.12-.3.28-.27.36.07.24.26.28.36.12a2,2,0,0,0,.18-.48Z"/><path class="cls-1" d="M151.56,101.2a.52.52,0,0,0-.62-.62A.53.53,0,0,0,151.56,101.2Z"/><path class="cls-1" d="M162.44,100.58c-.09.12-.29.27-.26.36.07.24.26.28.36.11a2.41,2.41,0,0,0,.18-.47Z"/><path class="cls-1" d="M103.22,111.11a.52.52,0,0,0,.62.62C103.85,111.3,103.65,111.1,103.22,111.11Z"/><path class="cls-1" d="M103.22,110.84c-.13-.1-.28-.3-.36-.27-.24.07-.28.26-.12.36a2,2,0,0,0,.48.18Z"/><path class="cls-1" d="M122.83,36l.22-.22a2.26,2.26,0,0,0-.42-.19s-.13.13-.2.19Z"/><path class="cls-1" d="M152.54,103c.07-.07.21-.17.19-.19a.74.74,0,0,0-.28-.36c-.26-.13-.38,0-.26.26S152.42,102.91,152.54,103Z"/><path class="cls-1" d="M162,102l-.22-.22a1.69,1.69,0,0,0-.19.41s.12.14.19.21Z"/></svg>